<mxfile host="app.diagrams.net" modified="2022-08-12T15:33:20.373Z" agent="5.0 (Windows NT 10.0; Win64; x64) AppleWebKit/537.36 (KHTML, like Gecko) Chrome/104.0.5112.81 Safari/537.36 Edg/104.0.1293.47" etag="9q5kpbudbvwEDB9S6OWm" version="20.2.1" type="github">
  <diagram id="C5RBs43oDa-KdzZeNtuy" name="Page-1">
    <mxGraphModel dx="1278" dy="546" grid="1" gridSize="10" guides="1" tooltips="1" connect="1" arrows="1" fold="1" page="1" pageScale="1" pageWidth="827" pageHeight="1169" math="0" shadow="0">
      <root>
        <mxCell id="WIyWlLk6GJQsqaUBKTNV-0" />
        <mxCell id="WIyWlLk6GJQsqaUBKTNV-1" parent="WIyWlLk6GJQsqaUBKTNV-0" />
        <mxCell id="Z5G_qLxR84cLtnTy4SVT-2" value="Visiteur" style="swimlane;horizontal=0;" vertex="1" parent="WIyWlLk6GJQsqaUBKTNV-1">
          <mxGeometry x="9" y="40" width="810" height="160" as="geometry" />
        </mxCell>
        <mxCell id="Z5G_qLxR84cLtnTy4SVT-4" value="" style="ellipse;whiteSpace=wrap;html=1;aspect=fixed;" vertex="1" parent="Z5G_qLxR84cLtnTy4SVT-2">
          <mxGeometry x="31" y="81" width="20" height="20" as="geometry" />
        </mxCell>
        <mxCell id="Z5G_qLxR84cLtnTy4SVT-5" value="" style="swimlane;startSize=0;" vertex="1" parent="Z5G_qLxR84cLtnTy4SVT-2">
          <mxGeometry x="111" y="74" width="110" height="40" as="geometry" />
        </mxCell>
        <mxCell id="Z5G_qLxR84cLtnTy4SVT-6" value="Remplir&lt;br&gt;&amp;nbsp;formulaire" style="text;html=1;align=center;verticalAlign=middle;resizable=0;points=[];autosize=1;strokeColor=none;fillColor=none;" vertex="1" parent="Z5G_qLxR84cLtnTy4SVT-5">
          <mxGeometry x="15" width="80" height="40" as="geometry" />
        </mxCell>
        <mxCell id="Z5G_qLxR84cLtnTy4SVT-7" value="" style="endArrow=classic;html=1;rounded=0;" edge="1" parent="Z5G_qLxR84cLtnTy4SVT-2">
          <mxGeometry width="50" height="50" relative="1" as="geometry">
            <mxPoint x="51" y="90.5" as="sourcePoint" />
            <mxPoint x="112" y="90.5" as="targetPoint" />
          </mxGeometry>
        </mxCell>
        <mxCell id="Z5G_qLxR84cLtnTy4SVT-20" value="" style="swimlane;startSize=0;" vertex="1" parent="Z5G_qLxR84cLtnTy4SVT-2">
          <mxGeometry x="499" y="71" width="118" height="40" as="geometry" />
        </mxCell>
        <mxCell id="Z5G_qLxR84cLtnTy4SVT-21" value="Confirmation OTP" style="text;html=1;align=center;verticalAlign=middle;resizable=0;points=[];autosize=1;strokeColor=none;fillColor=none;" vertex="1" parent="Z5G_qLxR84cLtnTy4SVT-20">
          <mxGeometry x="-2" y="5" width="120" height="30" as="geometry" />
        </mxCell>
        <mxCell id="Z5G_qLxR84cLtnTy4SVT-22" value="" style="swimlane;startSize=0;" vertex="1" parent="Z5G_qLxR84cLtnTy4SVT-2">
          <mxGeometry x="683" y="71" width="115" height="40" as="geometry" />
        </mxCell>
        <mxCell id="Z5G_qLxR84cLtnTy4SVT-23" value="Connexion" style="text;html=1;align=center;verticalAlign=middle;resizable=0;points=[];autosize=1;strokeColor=none;fillColor=none;" vertex="1" parent="Z5G_qLxR84cLtnTy4SVT-22">
          <mxGeometry x="15" y="5" width="80" height="30" as="geometry" />
        </mxCell>
        <mxCell id="Z5G_qLxR84cLtnTy4SVT-50" value="1" style="ellipse;shape=doubleEllipse;whiteSpace=wrap;html=1;aspect=fixed;strokeColor=#FD7E14;" vertex="1" parent="Z5G_qLxR84cLtnTy4SVT-2">
          <mxGeometry x="81" y="62" width="24" height="24" as="geometry" />
        </mxCell>
        <mxCell id="Z5G_qLxR84cLtnTy4SVT-65" value="8" style="ellipse;shape=doubleEllipse;whiteSpace=wrap;html=1;aspect=fixed;strokeColor=#FD7E14;" vertex="1" parent="Z5G_qLxR84cLtnTy4SVT-2">
          <mxGeometry x="461" y="93" width="24" height="24" as="geometry" />
        </mxCell>
        <mxCell id="Z5G_qLxR84cLtnTy4SVT-8" value="Système" style="swimlane;horizontal=0;" vertex="1" parent="WIyWlLk6GJQsqaUBKTNV-1">
          <mxGeometry x="9" y="250" width="811" height="340" as="geometry" />
        </mxCell>
        <mxCell id="Z5G_qLxR84cLtnTy4SVT-9" value="" style="swimlane;startSize=0;" vertex="1" parent="Z5G_qLxR84cLtnTy4SVT-8">
          <mxGeometry x="101" y="114.3" width="80" height="60" as="geometry" />
        </mxCell>
        <mxCell id="Z5G_qLxR84cLtnTy4SVT-10" value="Validation&lt;br&gt;des inputs" style="text;html=1;align=center;verticalAlign=middle;resizable=0;points=[];autosize=1;strokeColor=none;fillColor=none;" vertex="1" parent="Z5G_qLxR84cLtnTy4SVT-9">
          <mxGeometry y="9" width="80" height="40" as="geometry" />
        </mxCell>
        <mxCell id="Z5G_qLxR84cLtnTy4SVT-12" value="Vérification&lt;br&gt;email ou phone" style="html=1;whiteSpace=wrap;aspect=fixed;shape=isoRectangle;" vertex="1" parent="Z5G_qLxR84cLtnTy4SVT-8">
          <mxGeometry x="241" y="114.3" width="119" height="71.4" as="geometry" />
        </mxCell>
        <mxCell id="Z5G_qLxR84cLtnTy4SVT-13" value="" style="endArrow=classic;html=1;rounded=0;" edge="1" parent="Z5G_qLxR84cLtnTy4SVT-8">
          <mxGeometry width="50" height="50" relative="1" as="geometry">
            <mxPoint x="181" y="149.5" as="sourcePoint" />
            <mxPoint x="241" y="149.5" as="targetPoint" />
          </mxGeometry>
        </mxCell>
        <mxCell id="Z5G_qLxR84cLtnTy4SVT-16" value="" style="endArrow=classic;html=1;rounded=0;entryX=0.525;entryY=-0.093;entryDx=0;entryDy=0;entryPerimeter=0;exitX=0.518;exitY=0.965;exitDx=0;exitDy=0;exitPerimeter=0;" edge="1" parent="Z5G_qLxR84cLtnTy4SVT-8" source="Z5G_qLxR84cLtnTy4SVT-12" target="Z5G_qLxR84cLtnTy4SVT-14">
          <mxGeometry width="50" height="50" relative="1" as="geometry">
            <mxPoint x="365" y="198" as="sourcePoint" />
            <mxPoint x="415" y="148" as="targetPoint" />
          </mxGeometry>
        </mxCell>
        <mxCell id="Z5G_qLxR84cLtnTy4SVT-30" value="" style="html=1;whiteSpace=wrap;aspect=fixed;shape=isoRectangle;" vertex="1" parent="Z5G_qLxR84cLtnTy4SVT-8">
          <mxGeometry x="631" y="278.3" width="59" height="35.4" as="geometry" />
        </mxCell>
        <mxCell id="Z5G_qLxR84cLtnTy4SVT-14" value="" style="swimlane;startSize=0;" vertex="1" parent="Z5G_qLxR84cLtnTy4SVT-8">
          <mxGeometry x="258" y="269" width="85" height="54" as="geometry" />
        </mxCell>
        <mxCell id="Z5G_qLxR84cLtnTy4SVT-15" value="Création de&lt;br&gt;compte" style="text;html=1;align=center;verticalAlign=middle;resizable=0;points=[];autosize=1;strokeColor=none;fillColor=none;" vertex="1" parent="Z5G_qLxR84cLtnTy4SVT-14">
          <mxGeometry x="-5" y="9" width="90" height="40" as="geometry" />
        </mxCell>
        <mxCell id="Z5G_qLxR84cLtnTy4SVT-24" value="" style="swimlane;startSize=0;" vertex="1" parent="Z5G_qLxR84cLtnTy4SVT-8">
          <mxGeometry x="371" y="269" width="90" height="54" as="geometry" />
        </mxCell>
        <mxCell id="Z5G_qLxR84cLtnTy4SVT-25" value="Création profil" style="text;html=1;align=center;verticalAlign=middle;resizable=0;points=[];autosize=1;strokeColor=none;fillColor=none;" vertex="1" parent="Z5G_qLxR84cLtnTy4SVT-24">
          <mxGeometry x="-10" y="14" width="100" height="30" as="geometry" />
        </mxCell>
        <mxCell id="Z5G_qLxR84cLtnTy4SVT-26" value="" style="endArrow=classic;html=1;rounded=0;" edge="1" parent="Z5G_qLxR84cLtnTy4SVT-24">
          <mxGeometry width="50" height="50" relative="1" as="geometry">
            <mxPoint x="-26" y="28.5" as="sourcePoint" />
            <mxPoint y="29" as="targetPoint" />
          </mxGeometry>
        </mxCell>
        <mxCell id="Z5G_qLxR84cLtnTy4SVT-27" value="" style="swimlane;startSize=0;" vertex="1" parent="Z5G_qLxR84cLtnTy4SVT-8">
          <mxGeometry x="511" y="269" width="90" height="54" as="geometry" />
        </mxCell>
        <mxCell id="Z5G_qLxR84cLtnTy4SVT-28" value="Valider" style="text;html=1;align=center;verticalAlign=middle;resizable=0;points=[];autosize=1;strokeColor=none;fillColor=none;" vertex="1" parent="Z5G_qLxR84cLtnTy4SVT-27">
          <mxGeometry x="10" y="14" width="60" height="30" as="geometry" />
        </mxCell>
        <mxCell id="Z5G_qLxR84cLtnTy4SVT-29" value="" style="endArrow=classic;html=1;rounded=0;exitX=1.02;exitY=0.513;exitDx=0;exitDy=0;exitPerimeter=0;" edge="1" parent="Z5G_qLxR84cLtnTy4SVT-27" source="Z5G_qLxR84cLtnTy4SVT-25">
          <mxGeometry width="50" height="50" relative="1" as="geometry">
            <mxPoint x="-26" y="28.5" as="sourcePoint" />
            <mxPoint y="29" as="targetPoint" />
          </mxGeometry>
        </mxCell>
        <mxCell id="Z5G_qLxR84cLtnTy4SVT-31" value="" style="swimlane;startSize=0;" vertex="1" parent="Z5G_qLxR84cLtnTy4SVT-8">
          <mxGeometry x="731" y="269" width="69" height="54" as="geometry" />
        </mxCell>
        <mxCell id="Z5G_qLxR84cLtnTy4SVT-32" value="Activation&lt;br&gt;compte" style="text;html=1;align=center;verticalAlign=middle;resizable=0;points=[];autosize=1;strokeColor=none;fillColor=none;" vertex="1" parent="Z5G_qLxR84cLtnTy4SVT-31">
          <mxGeometry y="9" width="80" height="40" as="geometry" />
        </mxCell>
        <mxCell id="Z5G_qLxR84cLtnTy4SVT-33" value="" style="endArrow=classic;html=1;rounded=0;" edge="1" parent="Z5G_qLxR84cLtnTy4SVT-31">
          <mxGeometry width="50" height="50" relative="1" as="geometry">
            <mxPoint x="-30" y="29" as="sourcePoint" />
            <mxPoint y="29" as="targetPoint" />
          </mxGeometry>
        </mxCell>
        <mxCell id="Z5G_qLxR84cLtnTy4SVT-39" value="" style="edgeStyle=elbowEdgeStyle;elbow=vertical;endArrow=classic;html=1;rounded=0;" edge="1" parent="Z5G_qLxR84cLtnTy4SVT-8">
          <mxGeometry width="50" height="50" relative="1" as="geometry">
            <mxPoint x="302" y="116" as="sourcePoint" />
            <mxPoint x="211" y="-90" as="targetPoint" />
            <Array as="points">
              <mxPoint x="462" y="116" />
            </Array>
          </mxGeometry>
        </mxCell>
        <mxCell id="Z5G_qLxR84cLtnTy4SVT-52" value="2" style="ellipse;shape=doubleEllipse;whiteSpace=wrap;html=1;aspect=fixed;strokeColor=#FD7E14;" vertex="1" parent="Z5G_qLxR84cLtnTy4SVT-8">
          <mxGeometry x="111" y="40" width="24" height="24" as="geometry" />
        </mxCell>
        <mxCell id="Z5G_qLxR84cLtnTy4SVT-53" value="3" style="ellipse;shape=doubleEllipse;whiteSpace=wrap;html=1;aspect=fixed;strokeColor=#FD7E14;" vertex="1" parent="Z5G_qLxR84cLtnTy4SVT-8">
          <mxGeometry x="191" y="158" width="24" height="24" as="geometry" />
        </mxCell>
        <mxCell id="Z5G_qLxR84cLtnTy4SVT-55" value="5" style="ellipse;shape=doubleEllipse;whiteSpace=wrap;html=1;aspect=fixed;strokeColor=#FD7E14;" vertex="1" parent="Z5G_qLxR84cLtnTy4SVT-8">
          <mxGeometry x="271" y="230" width="24" height="24" as="geometry" />
        </mxCell>
        <mxCell id="Z5G_qLxR84cLtnTy4SVT-63" value="" style="endArrow=classic;html=1;rounded=0;exitX=0.653;exitY=-0.048;exitDx=0;exitDy=0;exitPerimeter=0;" edge="1" parent="Z5G_qLxR84cLtnTy4SVT-8">
          <mxGeometry width="50" height="50" relative="1" as="geometry">
            <mxPoint x="751" y="268.99799999999993" as="sourcePoint" />
            <mxPoint x="751.23" y="-97.41" as="targetPoint" />
          </mxGeometry>
        </mxCell>
        <mxCell id="Z5G_qLxR84cLtnTy4SVT-64" value="12" style="ellipse;shape=doubleEllipse;whiteSpace=wrap;html=1;aspect=fixed;strokeColor=#FD7E14;" vertex="1" parent="Z5G_qLxR84cLtnTy4SVT-8">
          <mxGeometry x="721" y="64" width="24" height="24" as="geometry" />
        </mxCell>
        <mxCell id="Z5G_qLxR84cLtnTy4SVT-18" value="" style="swimlane;startSize=0;" vertex="1" parent="WIyWlLk6GJQsqaUBKTNV-1">
          <mxGeometry x="350" y="111" width="110" height="40" as="geometry" />
        </mxCell>
        <mxCell id="Z5G_qLxR84cLtnTy4SVT-19" value="&amp;nbsp;Message OTP" style="text;html=1;align=center;verticalAlign=middle;resizable=0;points=[];autosize=1;strokeColor=none;fillColor=none;" vertex="1" parent="Z5G_qLxR84cLtnTy4SVT-18">
          <mxGeometry x="5" y="5" width="100" height="30" as="geometry" />
        </mxCell>
        <mxCell id="Z5G_qLxR84cLtnTy4SVT-11" value="" style="endArrow=classic;html=1;rounded=0;" edge="1" parent="WIyWlLk6GJQsqaUBKTNV-1">
          <mxGeometry width="50" height="50" relative="1" as="geometry">
            <mxPoint x="150" y="154" as="sourcePoint" />
            <mxPoint x="150" y="354" as="targetPoint" />
          </mxGeometry>
        </mxCell>
        <mxCell id="Z5G_qLxR84cLtnTy4SVT-37" value="" style="endArrow=classic;html=1;rounded=0;exitX=1.02;exitY=0.513;exitDx=0;exitDy=0;exitPerimeter=0;" edge="1" parent="WIyWlLk6GJQsqaUBKTNV-1">
          <mxGeometry width="50" height="50" relative="1" as="geometry">
            <mxPoint x="611" y="547.3900000000001" as="sourcePoint" />
            <mxPoint x="640" y="547" as="targetPoint" />
          </mxGeometry>
        </mxCell>
        <mxCell id="Z5G_qLxR84cLtnTy4SVT-38" value="OK" style="text;html=1;align=center;verticalAlign=middle;resizable=0;points=[];autosize=1;strokeColor=none;fillColor=none;" vertex="1" parent="WIyWlLk6GJQsqaUBKTNV-1">
          <mxGeometry x="686" y="524" width="40" height="30" as="geometry" />
        </mxCell>
        <mxCell id="Z5G_qLxR84cLtnTy4SVT-42" value="Non" style="text;html=1;align=center;verticalAlign=middle;resizable=0;points=[];autosize=1;strokeColor=none;fillColor=none;" vertex="1" parent="WIyWlLk6GJQsqaUBKTNV-1">
          <mxGeometry x="206" y="325" width="50" height="30" as="geometry" />
        </mxCell>
        <mxCell id="Z5G_qLxR84cLtnTy4SVT-43" value="OK" style="text;html=1;align=center;verticalAlign=middle;resizable=0;points=[];autosize=1;strokeColor=none;fillColor=none;" vertex="1" parent="WIyWlLk6GJQsqaUBKTNV-1">
          <mxGeometry x="300" y="455" width="40" height="30" as="geometry" />
        </mxCell>
        <mxCell id="Z5G_qLxR84cLtnTy4SVT-44" value="" style="endArrow=classic;html=1;rounded=0;exitX=0.653;exitY=-0.048;exitDx=0;exitDy=0;exitPerimeter=0;" edge="1" parent="WIyWlLk6GJQsqaUBKTNV-1" source="Z5G_qLxR84cLtnTy4SVT-24">
          <mxGeometry width="50" height="50" relative="1" as="geometry">
            <mxPoint x="390" y="350" as="sourcePoint" />
            <mxPoint x="439" y="150" as="targetPoint" />
          </mxGeometry>
        </mxCell>
        <mxCell id="Z5G_qLxR84cLtnTy4SVT-45" value="" style="endArrow=classic;html=1;rounded=0;entryX=0.033;entryY=0.453;entryDx=0;entryDy=0;entryPerimeter=0;" edge="1" parent="WIyWlLk6GJQsqaUBKTNV-1" target="Z5G_qLxR84cLtnTy4SVT-21">
          <mxGeometry width="50" height="50" relative="1" as="geometry">
            <mxPoint x="460" y="130" as="sourcePoint" />
            <mxPoint x="500" y="130" as="targetPoint" />
          </mxGeometry>
        </mxCell>
        <mxCell id="Z5G_qLxR84cLtnTy4SVT-47" value="" style="endArrow=classic;html=1;rounded=0;entryX=0;entryY=0.5;entryDx=0;entryDy=0;" edge="1" parent="WIyWlLk6GJQsqaUBKTNV-1" target="Z5G_qLxR84cLtnTy4SVT-22">
          <mxGeometry width="50" height="50" relative="1" as="geometry">
            <mxPoint x="630" y="131" as="sourcePoint" />
            <mxPoint x="654" y="129" as="targetPoint" />
          </mxGeometry>
        </mxCell>
        <mxCell id="Z5G_qLxR84cLtnTy4SVT-48" value="" style="endArrow=classic;html=1;rounded=0;" edge="1" parent="WIyWlLk6GJQsqaUBKTNV-1">
          <mxGeometry width="50" height="50" relative="1" as="geometry">
            <mxPoint x="232" y="134.5" as="sourcePoint" />
            <mxPoint x="350" y="135" as="targetPoint" />
          </mxGeometry>
        </mxCell>
        <mxCell id="Z5G_qLxR84cLtnTy4SVT-49" value="" style="endArrow=classic;html=1;rounded=0;exitX=0.441;exitY=1.155;exitDx=0;exitDy=0;exitPerimeter=0;entryX=0.418;entryY=-0.056;entryDx=0;entryDy=0;entryPerimeter=0;" edge="1" parent="WIyWlLk6GJQsqaUBKTNV-1" source="Z5G_qLxR84cLtnTy4SVT-20" target="Z5G_qLxR84cLtnTy4SVT-27">
          <mxGeometry width="50" height="50" relative="1" as="geometry">
            <mxPoint x="540" y="350" as="sourcePoint" />
            <mxPoint x="590" y="300" as="targetPoint" />
          </mxGeometry>
        </mxCell>
        <mxCell id="Z5G_qLxR84cLtnTy4SVT-54" value="4" style="ellipse;shape=doubleEllipse;whiteSpace=wrap;html=1;aspect=fixed;strokeColor=#FD7E14;" vertex="1" parent="WIyWlLk6GJQsqaUBKTNV-1">
          <mxGeometry x="224" y="216" width="24" height="24" as="geometry" />
        </mxCell>
        <mxCell id="Z5G_qLxR84cLtnTy4SVT-56" value="6" style="ellipse;shape=doubleEllipse;whiteSpace=wrap;html=1;aspect=fixed;strokeColor=#FD7E14;" vertex="1" parent="WIyWlLk6GJQsqaUBKTNV-1">
          <mxGeometry x="354" y="550" width="24" height="24" as="geometry" />
        </mxCell>
        <mxCell id="Z5G_qLxR84cLtnTy4SVT-57" value="7" style="ellipse;shape=doubleEllipse;whiteSpace=wrap;html=1;aspect=fixed;strokeColor=#FD7E14;" vertex="1" parent="WIyWlLk6GJQsqaUBKTNV-1">
          <mxGeometry x="409" y="171" width="24" height="24" as="geometry" />
        </mxCell>
        <mxCell id="Z5G_qLxR84cLtnTy4SVT-58" value="9" style="ellipse;shape=doubleEllipse;whiteSpace=wrap;html=1;aspect=fixed;strokeColor=#FD7E14;" vertex="1" parent="WIyWlLk6GJQsqaUBKTNV-1">
          <mxGeometry x="529" y="317" width="24" height="24" as="geometry" />
        </mxCell>
        <mxCell id="Z5G_qLxR84cLtnTy4SVT-59" value="" style="edgeStyle=elbowEdgeStyle;elbow=horizontal;endArrow=classic;html=1;rounded=0;entryX=1.04;entryY=0.893;entryDx=0;entryDy=0;entryPerimeter=0;" edge="1" parent="WIyWlLk6GJQsqaUBKTNV-1" target="Z5G_qLxR84cLtnTy4SVT-21">
          <mxGeometry width="50" height="50" relative="1" as="geometry">
            <mxPoint x="670" y="530" as="sourcePoint" />
            <mxPoint x="647.44" y="142.78999999999996" as="targetPoint" />
            <Array as="points" />
          </mxGeometry>
        </mxCell>
        <mxCell id="Z5G_qLxR84cLtnTy4SVT-60" value="NON" style="edgeLabel;html=1;align=center;verticalAlign=middle;resizable=0;points=[];" vertex="1" connectable="0" parent="Z5G_qLxR84cLtnTy4SVT-59">
          <mxGeometry x="-0.1323" y="-1" relative="1" as="geometry">
            <mxPoint as="offset" />
          </mxGeometry>
        </mxCell>
        <mxCell id="Z5G_qLxR84cLtnTy4SVT-61" value="10" style="ellipse;shape=doubleEllipse;whiteSpace=wrap;html=1;aspect=fixed;strokeColor=#FD7E14;" vertex="1" parent="WIyWlLk6GJQsqaUBKTNV-1">
          <mxGeometry x="621" y="310" width="24" height="24" as="geometry" />
        </mxCell>
        <mxCell id="Z5G_qLxR84cLtnTy4SVT-62" value="11" style="ellipse;shape=doubleEllipse;whiteSpace=wrap;html=1;aspect=fixed;strokeColor=#FD7E14;" vertex="1" parent="WIyWlLk6GJQsqaUBKTNV-1">
          <mxGeometry x="710" y="550" width="24" height="24" as="geometry" />
        </mxCell>
      </root>
    </mxGraphModel>
  </diagram>
</mxfile>
